<svg width="81" height="63" viewBox="0 0 81 63" fill="none" xmlns="http://www.w3.org/2000/svg">
<path d="M30.6793 62.5482C29.6711 62.5482 28.8083 62.3301 28.0909 61.8971C27.3735 61.461 26.8204 60.8415 26.438 60.0325C26.0556 59.2234 25.8628 58.2626 25.8628 57.1439C25.8628 56.3064 25.9702 55.5542 26.1852 54.8905C26.4001 54.2268 26.7129 53.6642 27.127 53.1997C27.541 52.7351 28.0498 52.378 28.6534 52.1283C29.2571 51.8786 29.9334 51.7554 30.6824 51.7554C31.3398 51.7554 31.9561 51.8502 32.5249 52.0398C33.0938 52.2294 33.5837 52.5075 33.9914 52.8773C34.0925 52.969 34.1557 53.0606 34.1873 53.1617C34.2189 53.2629 34.2189 53.3545 34.1936 53.4399C34.1683 53.5252 34.1209 53.5947 34.0514 53.6485C33.9819 53.7022 33.8997 53.7275 33.8049 53.7243C33.7101 53.718 33.6089 53.6706 33.4983 53.5821C33.1191 53.2534 32.6987 53.0069 32.2342 52.8489C31.7696 52.6877 31.2576 52.6087 30.7014 52.6087C29.8733 52.6087 29.1717 52.7857 28.5997 53.1396C28.0245 53.4936 27.5915 54.0087 27.2976 54.6882C27.0037 55.3677 26.8552 56.1863 26.8552 57.1439C26.8552 58.1109 27.0037 58.9358 27.2976 59.6121C27.5915 60.2916 28.0245 60.8068 28.5997 61.1607C29.1749 61.5147 29.8733 61.6917 30.7014 61.6917C31.2513 61.6917 31.7601 61.6095 32.2279 61.4452C32.6956 61.2808 33.1254 61.0343 33.5141 60.7056C33.6248 60.614 33.7259 60.5697 33.8207 60.5697C33.9155 60.5697 33.9945 60.5982 34.0609 60.6519C34.1273 60.7056 34.1747 60.7752 34.2031 60.8605C34.2316 60.9458 34.2347 61.0312 34.2094 61.1228C34.1841 61.2113 34.1273 61.2966 34.0388 61.3756C33.609 61.7644 33.1128 62.0551 32.5502 62.2511C31.9782 62.4502 31.3587 62.5482 30.6793 62.5482Z" fill="url(#paint0_linear_1745_464)"/>
<path d="M36.593 62.5162C36.4445 62.5162 36.3275 62.4752 36.2485 62.3961C36.1695 62.3171 36.1284 62.2002 36.1284 62.0517V55.5412C36.1284 55.3832 36.1695 55.2631 36.2485 55.1809C36.3275 55.1019 36.4445 55.0608 36.593 55.0608C36.7321 55.0608 36.8395 55.1019 36.9154 55.1809C36.9912 55.2599 37.0291 55.38 37.0291 55.5412V56.8718H36.8806C37.0607 56.2839 37.3831 55.8288 37.8445 55.5096C38.3091 55.1904 38.8653 55.0261 39.5132 55.0166C39.6333 55.0071 39.7313 55.0324 39.8135 55.0924C39.8956 55.1525 39.9336 55.2473 39.9336 55.3769C39.943 55.5159 39.9146 55.6234 39.8451 55.6992C39.7755 55.7751 39.6618 55.8225 39.5006 55.8415L39.292 55.8573C38.5841 55.9268 38.0341 56.1607 37.6454 56.562C37.2567 56.9602 37.0607 57.5007 37.0607 58.177V62.0548C37.0607 62.2034 37.0228 62.3203 36.947 62.3993C36.868 62.4783 36.751 62.5162 36.593 62.5162Z" fill="url(#paint1_linear_1745_464)"/>
<path d="M44.3131 62.5477C43.564 62.5477 42.9225 62.3991 42.3821 62.0989C41.8416 61.7987 41.4276 61.372 41.14 60.8126C40.8492 60.2532 40.707 59.5895 40.707 58.8216C40.707 58.0631 40.8524 57.4025 41.14 56.8368C41.4308 56.2743 41.8321 55.8318 42.3441 55.5126C42.8561 55.1934 43.4503 55.0322 44.1171 55.0322C44.607 55.0322 45.0368 55.1144 45.4129 55.2787C45.7858 55.4431 46.105 55.6769 46.3705 55.9803C46.636 56.2837 46.8382 56.6535 46.9773 57.0865C47.1163 57.5226 47.1859 58.0125 47.1859 58.5624C47.1859 58.7015 47.1479 58.8058 47.0721 58.8753C46.9962 58.9448 46.8951 58.9796 46.7655 58.9796H41.3612V58.3064H46.6138L46.3736 58.5023C46.3736 57.924 46.2883 57.431 46.1208 57.0296C45.9501 56.6251 45.7005 56.3122 45.3655 56.0941C45.0305 55.8761 44.6196 55.7654 44.1298 55.7654C43.5798 55.7654 43.1184 55.8919 42.7392 56.1478C42.3599 56.4007 42.0755 56.7515 41.8859 57.1939C41.6962 57.6396 41.6014 58.1484 41.6014 58.7267V58.8026C41.6014 59.7602 41.8353 60.4966 42.3062 61.0086C42.7739 61.5237 43.4345 61.7797 44.2815 61.7797C44.6512 61.7797 45.0083 61.7291 45.3528 61.6311C45.6973 61.5332 46.0355 61.3625 46.3642 61.1223C46.4621 61.0528 46.5601 61.018 46.6549 61.018C46.7497 61.018 46.8287 61.0433 46.8951 61.0939C46.9615 61.1445 47.0057 61.2077 47.031 61.2803C47.0563 61.3562 47.05 61.4352 47.0152 61.5205C46.9804 61.6059 46.9141 61.6817 46.8129 61.7512C46.4937 62.0104 46.1082 62.2095 45.6594 62.3422C45.2106 62.4813 44.7618 62.5477 44.3131 62.5477Z" fill="url(#paint2_linear_1745_464)"/>
<path d="M65.4434 62.2034C64.6944 62.2034 64.0528 62.0549 63.5124 61.7547C62.972 61.4544 62.558 61.0278 62.2704 60.4684C61.9796 59.909 61.8374 59.2453 61.8374 58.4773C61.8374 57.7188 61.9828 57.0583 62.2704 56.4926C62.5611 55.93 62.9625 55.4876 63.4745 55.1684C63.9865 54.8492 64.5806 54.688 65.2475 54.688C65.7373 54.688 66.1672 54.7702 66.5432 54.9345C66.9162 55.0988 67.2354 55.3327 67.5008 55.6361C67.7663 55.9395 67.9686 56.3093 68.1076 56.7423C68.2467 57.1784 68.3162 57.6682 68.3162 58.2182C68.3162 58.3572 68.2783 58.4615 68.2025 58.531C68.1266 58.6006 68.0255 58.6353 67.8959 58.6353H62.4916V57.9622H67.7442L67.5103 58.1613C67.5103 57.5829 67.425 57.0899 67.2575 56.6885C67.0868 56.284 66.8372 55.9711 66.5022 55.753C66.1672 55.535 65.7563 55.4244 65.2664 55.4244C64.7165 55.4244 64.2551 55.5508 63.8759 55.8068C63.4966 56.0596 63.2122 56.4104 63.0226 56.8529C62.8329 57.2985 62.7381 57.8073 62.7381 58.3857V58.4615C62.7381 59.4191 62.972 60.1555 63.4429 60.6675C63.9106 61.1826 64.5712 61.4386 65.4181 61.4386C65.7879 61.4386 66.145 61.3881 66.4895 61.2901C66.834 61.1921 67.1722 61.0214 67.5008 60.7812C67.5988 60.7117 67.6968 60.677 67.7916 60.677C67.8864 60.677 67.9654 60.7022 68.0318 60.7528C68.0982 60.8034 68.1424 60.8666 68.1677 60.9393C68.193 61.0151 68.1867 61.0941 68.1519 61.1795C68.1171 61.2648 68.0508 61.3407 67.9496 61.4102C67.6304 61.6693 67.2449 61.8684 66.7961 62.0012C66.341 62.1339 65.8922 62.2034 65.4434 62.2034Z" fill="url(#paint3_linear_1745_464)"/>
<path d="M51.288 62.5484C50.7981 62.5484 50.362 62.4536 49.9795 62.264C49.594 62.0744 49.2906 61.8152 49.0662 61.4865C48.8418 61.1579 48.728 60.7881 48.728 60.3804C48.728 59.84 48.8639 59.4165 49.1326 59.1067C49.4012 58.797 49.8563 58.579 50.4947 58.4557C51.1331 58.3324 52.0117 58.2692 53.1273 58.2692H53.772V58.9424H53.1431C52.2456 58.9424 51.544 58.9803 51.0414 59.0562C50.5389 59.132 50.185 59.2679 49.9859 59.467C49.7868 59.6661 49.6856 59.9442 49.6856 60.3045C49.6856 60.7533 49.8405 61.1168 50.1502 61.398C50.4599 61.6761 50.8771 61.8184 51.4081 61.8184C51.8379 61.8184 52.214 61.7172 52.5395 61.5118C52.865 61.3064 53.121 61.0251 53.3106 60.6648C53.5002 60.3045 53.5951 59.8968 53.5951 59.4386V57.732C53.5951 57.062 53.4592 56.5784 53.1905 56.2719C52.9219 55.9653 52.4921 55.8136 51.9042 55.8136C51.525 55.8136 51.1584 55.8642 50.8044 55.9621C50.4505 56.0633 50.0744 56.2213 49.673 56.4425C49.5624 56.5026 49.4644 56.5215 49.3822 56.5026C49.3001 56.4836 49.2337 56.4425 49.1863 56.3825C49.142 56.3224 49.1104 56.2497 49.0978 56.1644C49.082 56.0791 49.0946 55.9969 49.1357 55.9179C49.1768 55.8389 49.2463 55.7725 49.3443 55.7219C49.7646 55.4912 50.1913 55.3206 50.6243 55.2068C51.0572 55.093 51.4807 55.0361 51.8884 55.0361C52.4763 55.0361 52.963 55.1341 53.3485 55.3364C53.731 55.5355 54.0154 55.8357 54.2019 56.2339C54.3852 56.6321 54.48 57.1473 54.48 57.7762V62.0554C54.48 62.2039 54.4452 62.3209 54.3757 62.3999C54.3061 62.4789 54.2019 62.52 54.0596 62.52C53.9174 62.52 53.81 62.4789 53.731 62.3999C53.6519 62.3209 53.6109 62.2039 53.6109 62.0554V60.6775H53.7594C53.6709 61.0662 53.5097 61.4012 53.2822 61.6793C53.0515 61.9574 52.767 62.1723 52.4289 62.324C52.0844 62.4726 51.7051 62.5484 51.288 62.5484Z" fill="url(#paint4_linear_1745_464)"/>
<path d="M59.594 62.5481C59.0567 62.5481 58.608 62.447 58.2477 62.2479C57.8874 62.0487 57.6188 61.7612 57.4386 61.3882C57.2585 61.0153 57.17 60.5539 57.17 60.004V55.9049H56.0638C55.9343 55.9049 55.83 55.8733 55.751 55.8069C55.6719 55.7406 55.6309 55.6489 55.6309 55.5288C55.6309 55.4182 55.6719 55.3329 55.751 55.2665C55.83 55.2033 55.9343 55.1685 56.0638 55.1685H57.17V53.2976C57.17 53.1396 57.2111 53.0195 57.2901 52.9468C57.3691 52.8709 57.486 52.833 57.6346 52.833C57.7736 52.833 57.8842 52.8709 57.9632 52.9468C58.0423 53.0226 58.0833 53.1396 58.0833 53.2976V55.1685H60.1028C60.2419 55.1685 60.3462 55.2001 60.4189 55.2665C60.4884 55.3329 60.5232 55.4182 60.5232 55.5288C60.5232 55.6489 60.4884 55.7406 60.4189 55.8069C60.3493 55.8733 60.2451 55.9049 60.1028 55.9049H58.0833V59.887C58.0833 60.497 58.2066 60.9584 58.4563 61.2776C58.7059 61.5968 59.1199 61.758 59.6983 61.758C59.8974 61.758 60.0649 61.7359 60.2008 61.6916C60.3367 61.6474 60.4473 61.6253 60.539 61.6253C60.6085 61.6253 60.6717 61.6537 60.7254 61.7137C60.7792 61.7738 60.8076 61.8686 60.8076 61.9982C60.8076 62.0772 60.7918 62.1594 60.7539 62.2384C60.7191 62.3174 60.6559 62.3679 60.5674 62.3869C60.4568 62.4248 60.3083 62.4628 60.1186 62.4975C59.929 62.5291 59.752 62.5481 59.594 62.5481Z" fill="url(#paint5_linear_1745_464)"/>
<path d="M70.4436 62.5162C70.295 62.5162 70.1781 62.4752 70.0991 62.3961C70.0201 62.3171 69.979 62.2002 69.979 62.0517V55.5412C69.979 55.3832 70.0201 55.2631 70.0991 55.1809C70.1781 55.1019 70.295 55.0608 70.4436 55.0608C70.5826 55.0608 70.6901 55.1019 70.766 55.1809C70.8418 55.2599 70.8797 55.38 70.8797 55.5412V56.8718H70.7312C70.9113 56.2839 71.2337 55.8288 71.6951 55.5096C72.1597 55.1904 72.7159 55.0261 73.3638 55.0166C73.4839 55.0071 73.5819 55.0324 73.664 55.0924C73.7462 55.1525 73.7841 55.2473 73.7841 55.3769C73.7936 55.5159 73.7652 55.6234 73.6956 55.6992C73.6261 55.7751 73.5123 55.8225 73.3512 55.8415L73.1426 55.8573C72.4346 55.9268 71.8847 56.1607 71.496 56.562C71.1073 56.9602 70.9113 57.5007 70.9113 58.177V62.0548C70.9113 62.2034 70.8734 62.3203 70.7976 62.3993C70.7217 62.4783 70.6048 62.5162 70.4436 62.5162Z" fill="url(#paint6_linear_1745_464)"/>
<path d="M77.3907 62.5484C76.9419 62.5484 76.4963 62.4884 76.0507 62.3683C75.6051 62.2482 75.1847 62.0428 74.7865 61.7552C74.7075 61.7046 74.6538 61.6414 74.6285 61.5687C74.6032 61.496 74.6 61.417 74.6127 61.338C74.6285 61.259 74.6633 61.1926 74.717 61.1357C74.7707 61.0788 74.8402 61.0472 74.9192 61.0377C74.9983 61.0283 75.0836 61.0536 75.1721 61.1136C75.5608 61.3728 75.9401 61.5529 76.3098 61.6509C76.6796 61.752 77.0494 61.7994 77.416 61.7994C78.0259 61.7994 78.4874 61.6856 78.8066 61.4549C79.1258 61.2274 79.2869 60.9145 79.2869 60.5258C79.2869 60.2066 79.1858 59.9601 78.9804 59.7862C78.7749 59.6124 78.4431 59.4702 77.9848 59.3596L76.6828 59.0593C76.0538 58.9203 75.5893 58.6927 75.2922 58.3798C74.9919 58.0638 74.8434 57.6593 74.8434 57.1599C74.8434 56.7301 74.9572 56.3572 75.1816 56.038C75.406 55.7188 75.7252 55.4723 76.1392 55.2985C76.5532 55.1246 77.0304 55.0361 77.5677 55.0361C78.007 55.0361 78.4241 55.1025 78.8255 55.2321C79.2269 55.3617 79.5745 55.5608 79.8748 55.8294C79.9538 55.8894 80.0075 55.959 80.0328 56.038C80.0581 56.117 80.0581 56.196 80.0328 56.2687C80.0075 56.3445 79.9664 56.4046 79.9064 56.4552C79.8463 56.5057 79.7768 56.531 79.6978 56.531C79.6188 56.531 79.5334 56.5026 79.445 56.4425C79.1542 56.2213 78.8508 56.0601 78.5316 55.9558C78.2124 55.8515 77.8869 55.7978 77.5582 55.7978C76.9798 55.7978 76.5342 55.9179 76.2182 56.1581C75.9021 56.3983 75.7473 56.7238 75.7473 57.1315C75.7473 57.4412 75.8453 57.6909 76.038 57.8805C76.234 58.0701 76.5405 58.2155 76.9577 58.3166L78.2598 58.6169C78.9077 58.7654 79.3912 58.9898 79.7104 59.2837C80.0296 59.5776 80.1908 59.9759 80.1908 60.4752C80.1908 61.1136 79.938 61.6193 79.4355 61.9954C78.933 62.3714 78.2472 62.5484 77.3907 62.5484Z" fill="url(#paint7_linear_1745_464)"/>
<path d="M21.3974 58.8503C22.5699 58.9008 22.9618 58.3604 22.9934 57.2732C23.0977 53.5187 19.8046 51.221 16.3218 52.6653C15.7434 52.9055 15.3263 53.1141 14.6626 52.6211C13.5691 51.812 12.1753 52.3335 11.3979 53.5629C11.1608 53.939 11.2114 54.5395 10.6267 54.6848C8.66412 51.3696 7.84557 51.3727 5.05493 54.7291C4.87479 54.4131 4.70412 54.1128 4.53662 53.8094C3.73072 52.3588 2.55189 51.91 1.26244 52.5642C0.048844 53.1773 -0.343045 54.5805 0.32064 55.9774C1.17395 57.7726 2.0241 59.5708 2.90269 61.3533C3.69912 62.9683 5.57008 63.4139 6.75839 62.3204C7.28618 61.8337 7.45368 61.1258 7.83925 60.5253C10.4308 63.8721 11.3125 63.8342 13.5501 60.3514C13.8851 60.3704 13.961 60.6612 14.0937 60.8792C15.6865 63.4455 19.9405 63.1895 21.685 62.2888C22.5351 61.8495 22.769 61.1036 22.2507 60.2819C21.7577 59.5013 21.015 59.593 20.2407 59.8774C18.9481 60.3514 17.7534 60.3104 16.622 58.8345C18.4108 58.8345 19.9088 58.787 21.3974 58.8503ZM16.9286 56.0185C16.9159 55.3169 17.6555 54.8492 18.4614 54.8681C19.2009 54.8871 19.8741 55.2379 19.8425 55.9901C19.833 56.2145 19.7824 56.3441 19.7066 56.4199L18.9196 56.4389C18.8596 56.4325 18.8059 56.4357 18.7521 56.442L17.1846 56.48C17.0329 56.4325 16.9349 56.3093 16.9286 56.0185Z" fill="url(#paint8_linear_1745_464)"/>
<path d="M45.5869 1.28685C45.8935 3.00927 46.1084 3.64135 46.2095 3.86258C46.3359 4.48518 47.4958 10.1739 48.643 14.1181C49.1866 15.9827 49.8882 17.0035 50.7921 17.2343C50.9185 17.2659 51.0386 17.2817 51.1555 17.2817C51.6296 17.2817 52.0247 17.0509 52.2332 16.8645C52.9854 16.422 60.8896 11.6561 59.3126 7.00086C57.7197 2.30133 46.5603 0.825429 46.0863 0.765382C45.7829 0.727457 45.5332 0.989768 45.5869 1.28685ZM47.2272 1.85255C50.1695 2.37402 57.3373 3.97003 58.4624 7.28846C59.8498 11.378 51.8192 16.0712 51.7371 16.1186L51.6865 16.1502L51.6486 16.1882C51.6359 16.2008 51.3547 16.4663 51.0039 16.3715C50.6878 16.2861 50.0747 15.85 49.4995 13.8716C48.3017 9.75357 47.0849 3.69507 47.0723 3.63503L47.066 3.57498L47.0249 3.50861C47.0186 3.49597 46.9048 3.2621 46.712 2.39299C46.6456 2.08011 46.9143 1.79567 47.2272 1.85255Z" fill="#E77044"/>
<path d="M20.9454 19.3612L33.5618 18.805C34.1844 18.7766 34.4814 18.0275 34.0485 17.5819L21.2931 4.47572C20.7969 3.9669 19.9341 4.3177 19.9341 5.02879V18.3973C19.9341 18.9441 20.3955 19.3865 20.9454 19.3612ZM20.8285 5.27531L33.1383 17.9264L21.8398 18.4258C21.2899 18.451 20.8285 18.0086 20.8285 17.4587V5.27531V5.27531Z" fill="#00A750"/>
<path d="M33.8051 13.0558C34.1307 13.394 34.6932 13.078 34.5763 12.6229L31.6213 1.10317C31.5613 0.869298 31.3306 0.72392 31.0935 0.768166L24.1311 2.05762C23.7709 2.12399 23.6318 2.56328 23.8846 2.82559L33.8051 13.0558ZM25.9357 2.6328L30.4362 1.80162C30.6732 1.75738 30.9039 1.90592 30.9639 2.13663L32.876 9.58255C32.9929 10.0376 32.4304 10.3505 32.1048 10.0155L25.6924 3.40079C25.4364 3.13848 25.5786 2.69917 25.9357 2.6328Z" fill="#297FC3"/>
<path d="M39.7428 19.0797C39.8976 19.5096 40.5171 19.4622 40.6056 19.0165L44.18 0.916887C44.2337 0.645092 44.0314 0.392265 43.7565 0.379623L33.5673 0.000370719C33.2481 -0.0122709 33.0206 0.300607 33.128 0.600846L39.7428 19.0797ZM34.8536 0.942176L42.6756 1.23293C42.9506 1.24241 43.1528 1.49841 43.0991 1.7702L40.3559 15.6633C40.2674 16.1121 39.6448 16.1564 39.4931 15.7266L34.4143 1.53949C34.3069 1.24557 34.5344 0.932694 34.8536 0.942176Z" fill="#D5C92D"/>
<path d="M42.5114 20.296L47.7514 18.0837C47.881 18.03 47.9536 17.8941 47.9284 17.755L45.7983 5.79923C45.7414 5.47686 45.2799 5.46738 45.2104 5.78658L42.0974 19.9547C42.05 20.1949 42.287 20.3908 42.5114 20.296ZM43.3458 18.463L45.1219 10.3755C45.1914 10.0563 45.6529 10.0658 45.7098 10.3881L46.9265 17.2146C46.9518 17.3537 46.8759 17.4896 46.7495 17.5433L43.7566 18.8043C43.5322 18.8959 43.2952 18.7 43.3458 18.463Z" fill="#00B1C1"/>
<path d="M17.2098 18.2332C17.5733 18.5872 18.1801 18.3027 18.1422 17.7971L17.4184 7.73749C17.3837 7.25395 16.7832 7.04852 16.4577 7.40881L11.9699 12.4022C11.7708 12.6235 11.7834 12.9585 11.9952 13.1671L17.2098 18.2332ZM13.2119 12.3612L15.7181 9.57052C16.0436 9.21024 16.6441 9.41567 16.6789 9.89921L17.0834 15.5184C17.1182 16.0241 16.5114 16.3054 16.1511 15.9545L13.2404 13.1228C13.0255 12.9174 13.016 12.5792 13.2119 12.3612Z" fill="#00B1C1"/>
<path d="M17.7377 20.2239C17.8294 20.2239 17.8673 20.1101 17.7978 20.0533L10.6774 14.4119C10.6205 14.3677 10.5351 14.3993 10.5225 14.472L9.5965 20.1133C9.58702 20.1702 9.63126 20.2239 9.69131 20.2239H17.7377ZM11.1609 16.1154C11.1735 16.0427 11.2589 16.0111 11.3158 16.0553L15.2315 19.1557C15.301 19.2126 15.2631 19.3264 15.1715 19.3264H10.75C10.69 19.3264 10.6457 19.2726 10.6552 19.2157L11.1609 16.1154Z" fill="#C461A5"/>
<path d="M9.66309 21.2314V22.7263L9.67889 22.7832C9.70101 22.8654 11.8216 30.5009 19.0811 30.5009C19.5141 30.5009 19.966 30.4725 20.4369 30.4156L20.9236 30.3555L18.9136 21.2314H9.66309V21.2314ZM10.5543 22.6062V22.1258H18.1962L19.8364 29.5781C12.8962 30.109 10.7661 23.3426 10.5543 22.6062Z" fill="#E37045"/>
<path d="M71.1169 24.3226L71.0758 24.1267L70.8988 24.0287C68.9204 22.9225 62.2298 21.7943 60.3715 23.1438C58.5606 24.4617 58.608 29.7617 58.6206 30.3621L58.6238 30.596L66.5185 35.8012L66.7365 35.7127C72.9499 33.1654 71.1358 24.4111 71.1169 24.3226ZM66.6164 34.793L59.515 30.1093C59.5055 27.9982 59.8595 24.6229 60.8993 23.8644C62.293 22.853 68.2156 23.7 70.2825 24.7113C70.4974 25.9597 71.4013 32.625 66.6164 34.793Z" fill="#F1C617"/>
<path d="M70.7155 21.7157L70.7471 21.2511C70.7565 21.0963 70.962 17.4428 68.2219 16.0301L67.9375 15.8848L62.7544 20.8814L70.7155 21.7157ZM68.086 16.9814C69.5461 17.9295 69.8116 19.8384 69.8527 20.7233L64.7581 20.1892L68.086 16.9814Z" fill="#C461A5"/>
<path d="M67.4791 14.5895C67.4759 14.5231 67.4222 12.9303 66.4172 12.1244C65.9084 11.7167 65.2637 11.5808 64.5083 11.7293L64.404 11.7483L60.3556 14.9055L59.9731 20.7523L67.4854 14.8139L67.4791 14.5895ZM60.9971 18.8023L61.2215 15.3638L64.7801 12.5889C65.2226 12.5226 65.5765 12.5984 65.8547 12.8196C66.3635 13.2273 66.5183 14.0206 66.5657 14.3999L60.9971 18.8023Z" fill="#297FC3"/>
<path d="M61.655 11.795C61.674 11.795 61.693 11.795 61.7119 11.795C62.4926 11.795 63.2827 11.4125 64.0664 10.6604L64.2655 10.4676L64.1834 10.2053C63.9274 9.38672 62.954 7.83812 61.0925 7.83496H60.7385L59.9927 11.0017L60.157 11.1755C60.2171 11.2387 60.748 11.7728 61.655 11.795ZM61.4401 8.75779C62.4926 8.91898 63.0203 9.7786 63.2258 10.2179C62.0943 11.185 61.3169 10.9132 60.9819 10.7014L61.4401 8.75779Z" fill="#C461A5"/>
<path d="M56.3643 42.789L56.9963 42.6626C61.3482 41.7934 64.044 36.4113 64.1578 36.1806L64.3569 35.7792L58.0108 32.6504L56.3643 42.789ZM63.1433 36.1806C62.4923 37.3278 60.4033 40.6494 57.4609 41.6165L58.6998 33.9904L63.1433 36.1806Z" fill="#297FC3"/>
<path d="M52.2842 29.1802L55.4857 42.7004L56.6203 31.5473L52.2842 29.1802ZM55.1349 37.334L53.6179 30.9279L55.6721 32.0498L55.1349 37.334Z" fill="#C461A5"/>
<path d="M50.7734 31.2188L45.2964 37.4258L54.1518 41.626L50.7734 31.2188ZM50.4068 32.9854L52.6601 39.9288L46.7533 37.1287L50.4068 32.9854Z" fill="#00B1C1"/>
<path d="M47.3406 40.8834C47.3501 40.9181 48.1023 43.8257 51.4081 43.8257C51.8979 43.8257 52.4447 43.7625 53.0546 43.614L54.2998 43.3137L47.1226 39.9795L47.3406 40.8834ZM51.3449 42.9281C49.9985 42.906 49.2084 42.3024 48.7565 41.724L51.3449 42.9281Z" fill="#F1C617"/>
<path d="M51.0032 21.1626L50.9811 21.6588C50.9748 21.8168 50.8421 25.5208 52.6087 27.6035L52.9279 27.9796L58.4397 22.2782L51.0032 21.1626ZM51.8755 22.1961L56.5908 22.904L52.9943 26.6238C52.0683 25.2048 51.9008 23.1379 51.8755 22.1961Z" fill="#00A750"/>
<path d="M58.3428 14.7943L58.1121 14.5952L50.5145 18.5931L50.4513 18.6848C50.2585 18.9692 50.2332 19.2821 50.3849 19.5412C50.7547 20.1797 52.4771 20.363 54.3101 20.363C55.4479 20.363 56.6267 20.2934 57.5527 20.2207L57.7645 20.2049L57.8845 20.0311C60.2928 16.542 58.4218 14.8639 58.3428 14.7943ZM57.2683 19.3453C54.563 19.5444 52.0378 19.4686 51.3172 19.181L57.9351 15.6982C58.2164 16.1596 58.602 17.3163 57.2683 19.3453Z" fill="#00B1C1"/>
<path d="M44.563 38.5323L44.2406 38.2637L40.8369 41.8476L40.8052 41.9487C40.7673 42.0751 40.4797 43.2287 42.2654 45.2608L42.5624 45.599L46.0894 42.4228V42.2237C46.0926 42.1257 46.0737 39.7933 44.563 38.5323ZM42.6446 44.3222C41.7344 43.1844 41.6522 42.4955 41.6522 42.2837L44.2849 39.5152C44.9991 40.3495 45.154 41.5695 45.1887 42.034L42.6446 44.3222Z" fill="#00A750"/>
<path d="M38.6031 44.7048L40.2402 48.0548L41.1251 46.2819L39.0614 44.3603C38.8275 44.1423 38.4609 44.4141 38.6031 44.7048ZM40.5784 46.383L40.2466 47.0467L39.3774 45.2642L40.5784 46.383Z" fill="#00B1C1"/>
<path d="M27.8228 28.188L20.1968 21.627L22.8642 30.5045H23.196C23.3382 30.5045 26.6788 30.4761 27.6648 28.5008L27.8228 28.188ZM23.5247 29.5943L21.935 24.2975L26.6851 28.3839C25.9898 29.2499 24.4096 29.5343 23.5247 29.5943Z" fill="#F1C617"/>
<path d="M34.6012 23.0587C34.6739 22.8533 34.6802 22.5657 34.5064 22.2812C33.7731 21.0676 30.1608 20.7263 23.4671 21.2351L22.3799 21.3173L28.2298 26.2697L28.3183 26.295C28.3941 26.3171 29.4466 26.63 30.676 26.63C31.5735 26.63 32.5659 26.4624 33.3307 25.8936C34.1524 25.2805 34.5791 24.3292 34.6012 23.0587ZM32.7997 25.173C31.4913 26.1464 29.1368 25.587 28.6628 25.4606L24.6301 22.0474C33.0399 21.5038 33.7131 22.6605 33.7542 22.7616L33.7099 22.8343V22.9607C33.7068 23.9942 33.4097 24.7179 32.7997 25.173Z" fill="#00B1C1"/>
<path d="M33.2926 31.4021C30.9254 29.5975 27.8788 30.1948 27.7492 30.2201L27.2246 30.3276L27.4237 30.8238C29.8541 36.8601 35.1699 37.5428 35.3974 37.5681L35.9315 37.6313L35.8968 37.094C35.7198 34.4993 34.8444 32.5841 33.2926 31.4021ZM28.4825 31.026C29.399 30.9533 31.2668 30.9786 32.7553 32.1164C33.9752 33.0487 34.7116 34.5467 34.9486 36.5757C33.6402 36.2597 30.3471 35.0871 28.4825 31.026Z" fill="#00A750"/>
<path d="M42.0121 38.0137L42.0469 37.8841C42.0659 37.8083 42.2239 37.1225 41.7245 36.4272C41.1999 35.6971 40.1759 35.2705 38.681 35.1598L38.4567 35.144L38.3081 35.3115C38.286 35.3368 36.0326 37.9884 38.2986 40.7569L38.5957 41.1204L42.0121 38.0137ZM38.8485 36.07C40.1791 36.2091 40.7448 36.6105 40.985 36.9328C41.1683 37.1762 41.1936 37.4195 41.1904 37.5523L38.7127 39.8088C37.616 38.1148 38.4914 36.5789 38.8485 36.07Z" fill="#C461A5"/>
<path d="M41.5483 26.4438L38.9536 32.0156L38.9599 32.1263C38.9599 32.1579 39.1622 35.1824 43.3687 35.7418L43.9028 35.8145L43.8744 35.2772C43.8617 35.0275 43.5267 29.1175 41.9939 27.0506L41.5483 26.4438ZM39.8638 32.1768L41.6779 28.2864C42.5027 30.1226 42.8378 33.4441 42.942 34.7652C40.3537 34.2248 39.9302 32.5972 39.8638 32.1768Z" fill="#F1C617"/>
<path d="M37.661 32.3285C38.3563 32.1421 39.3771 31.1307 40.1925 24.5508L40.2652 23.9756L39.69 24.0546C39.6236 24.0641 38.0434 24.2948 37.0258 25.8244C36.0776 27.2466 35.9386 29.2724 36.6181 31.8387L36.6402 31.924L36.6939 31.9935C36.8108 32.1452 37.0763 32.3601 37.4271 32.3601C37.4998 32.3601 37.5788 32.3507 37.661 32.3285ZM37.7558 26.3333C38.2014 25.6569 38.7861 25.303 39.2159 25.1197C38.4385 30.8906 37.5535 31.4183 37.4398 31.4626C36.8741 29.2313 36.9815 27.5058 37.7558 26.3333Z" fill="#E77044"/>
<path d="M45.5461 33.5291C45.5714 33.5354 45.7168 33.5639 45.9475 33.5639C46.8261 33.5639 48.9341 33.1309 50.3974 29.2878L50.4922 29.0413L50.3215 28.839C50.1761 28.6715 46.7597 24.7116 43.3844 25.0371L42.8472 25.0876L45.2902 33.469L45.5461 33.5291ZM49.4651 29.2246C48.2104 32.3218 46.5986 32.6631 45.9886 32.6726L44.0197 25.922C46.3805 26.0768 48.8014 28.5072 49.4651 29.2246Z" fill="#00A750"/>
<path d="M43.6335 21.6237L42.8687 21.8164L43.4249 22.3727C46.0986 25.0464 49.5403 25.3087 49.6857 25.3182L50.1945 25.3529L50.1629 24.8441C50.0902 23.6779 49.6383 22.7867 48.8229 22.1894C46.9329 20.8114 43.7662 21.592 43.6335 21.6237ZM49.1958 24.3511C48.2888 24.1899 46.4083 23.7064 44.7238 22.3411C45.7035 22.221 47.2837 22.1736 48.2982 22.9163C48.766 23.2576 49.0631 23.7285 49.1958 24.3511Z" fill="#C461A5"/>
<path d="M39.0354 22.4236L39.2345 22.057L38.8837 21.8326C38.7351 21.7377 37.392 20.9097 36.3964 21.4849C35.7707 21.8452 35.4799 22.6353 35.5336 23.8363L35.5526 24.2471L35.9635 24.2629C35.9698 24.2629 35.9856 24.2629 36.0077 24.2629C36.3174 24.2661 38.0746 24.1871 39.0354 22.4236ZM36.428 23.3274C36.4596 22.7712 36.6019 22.4014 36.842 22.2592C36.9432 22.1992 37.0664 22.1771 37.196 22.1771C37.4583 22.1771 37.7554 22.2719 37.9988 22.3761C37.5026 23.0209 36.8515 23.2484 36.428 23.3274Z" fill="#00A750"/>
<path d="M54.4368 29.2471C55.0373 30.1794 56.6554 30.467 56.8355 30.4954L57.3539 30.5808V25.167L54.2977 27.9608L54.263 28.0872C54.1524 28.4981 54.2124 28.8994 54.4368 29.2471ZM56.4594 27.196V29.4904C55.9949 29.3514 55.4102 29.1112 55.1858 28.7635C55.1194 28.6592 55.091 28.555 55.1036 28.438L56.4594 27.196Z" fill="#C461A5"/>
<path d="M34.7343 30.9185C34.8228 30.9786 34.9397 31.0228 35.0662 31.0228C35.1673 31.0228 35.2747 30.9944 35.3727 30.9312C35.7362 30.691 35.8721 30.1221 35.4264 28.0268L35.3474 27.6602L30.9829 27.7929L34.7027 30.8964L34.7343 30.9185ZM34.63 28.5767C34.7438 29.1677 34.7944 29.5596 34.8102 29.8187L33.369 28.6146L34.63 28.5767Z" fill="#297FC3"/>
<path d="M36.4717 20.006C36.7751 20.1861 37.1196 20.243 37.423 20.243C37.8718 20.243 38.2352 20.1261 38.2605 20.1166L38.782 19.9428L35.6753 18.4321L35.7511 18.8619C35.846 19.3897 36.0861 19.7753 36.4717 20.006ZM37.4578 19.7943C37.2144 19.8006 36.9331 19.7595 36.7024 19.6204C36.557 19.5351 36.4433 19.4119 36.3548 19.257L37.4578 19.7943Z" fill="#297FC3"/>
<path d="M49.0732 19.9331L49.3039 19.7055L49.0068 19.5728C47.6447 18.9597 46.7724 19.873 46.5006 20.4419L46.3647 20.7232L46.6745 20.7611C46.7851 20.7737 46.8894 20.7801 46.9937 20.7801C48.2073 20.7769 49.0384 19.971 49.0732 19.9331ZM48.1346 19.8161C48.2357 19.8161 48.3432 19.8288 48.4569 19.8541C48.1662 20.05 47.6921 20.2965 47.1106 20.3281C47.3034 20.0942 47.6384 19.8161 48.1346 19.8161Z" fill="#C461A5"/>
<defs>
<linearGradient id="paint0_linear_1745_464" x1="25.8602" y1="57.1524" x2="34.2207" y2="57.1524" gradientUnits="userSpaceOnUse">
<stop offset="0.0121" stop-color="#00B3CE"/>
<stop offset="0.2765" stop-color="#4696BD"/>
<stop offset="0.632" stop-color="#886AA5"/>
<stop offset="0.8813" stop-color="#A14295"/>
<stop offset="1" stop-color="#AA2990"/>
</linearGradient>
<linearGradient id="paint1_linear_1745_464" x1="36.1275" y1="58.7673" x2="39.9308" y2="58.7673" gradientUnits="userSpaceOnUse">
<stop offset="0.0121" stop-color="#00B3CE"/>
<stop offset="0.2765" stop-color="#4696BD"/>
<stop offset="0.632" stop-color="#886AA5"/>
<stop offset="0.8813" stop-color="#A14295"/>
<stop offset="1" stop-color="#AA2990"/>
</linearGradient>
<linearGradient id="paint2_linear_1745_464" x1="40.7065" y1="58.7907" x2="47.1869" y2="58.7907" gradientUnits="userSpaceOnUse">
<stop offset="0.0121" stop-color="#00B3CE"/>
<stop offset="0.2765" stop-color="#4696BD"/>
<stop offset="0.632" stop-color="#886AA5"/>
<stop offset="0.8813" stop-color="#A14295"/>
<stop offset="1" stop-color="#AA2990"/>
</linearGradient>
<linearGradient id="paint3_linear_1745_464" x1="61.8367" y1="58.4462" x2="68.3171" y2="58.4462" gradientUnits="userSpaceOnUse">
<stop offset="0.0121" stop-color="#00B3CE"/>
<stop offset="0.2765" stop-color="#4696BD"/>
<stop offset="0.632" stop-color="#886AA5"/>
<stop offset="0.8813" stop-color="#A14295"/>
<stop offset="1" stop-color="#AA2990"/>
</linearGradient>
<linearGradient id="paint4_linear_1745_464" x1="48.7281" y1="58.7915" x2="54.4752" y2="58.7915" gradientUnits="userSpaceOnUse">
<stop offset="0.0121" stop-color="#00B3CE"/>
<stop offset="0.2765" stop-color="#4696BD"/>
<stop offset="0.632" stop-color="#886AA5"/>
<stop offset="0.8813" stop-color="#A14295"/>
<stop offset="1" stop-color="#AA2990"/>
</linearGradient>
<linearGradient id="paint5_linear_1745_464" x1="55.6281" y1="57.6909" x2="60.8063" y2="57.6909" gradientUnits="userSpaceOnUse">
<stop offset="0.0121" stop-color="#00B3CE"/>
<stop offset="0.2765" stop-color="#4696BD"/>
<stop offset="0.632" stop-color="#886AA5"/>
<stop offset="0.8813" stop-color="#A14295"/>
<stop offset="1" stop-color="#AA2990"/>
</linearGradient>
<linearGradient id="paint6_linear_1745_464" x1="69.9804" y1="58.7673" x2="73.7837" y2="58.7673" gradientUnits="userSpaceOnUse">
<stop offset="0.0121" stop-color="#00B3CE"/>
<stop offset="0.2765" stop-color="#4696BD"/>
<stop offset="0.632" stop-color="#886AA5"/>
<stop offset="0.8813" stop-color="#A14295"/>
<stop offset="1" stop-color="#AA2990"/>
</linearGradient>
<linearGradient id="paint7_linear_1745_464" x1="74.6046" y1="58.7915" x2="80.188" y2="58.7915" gradientUnits="userSpaceOnUse">
<stop offset="0.0121" stop-color="#00B3CE"/>
<stop offset="0.2765" stop-color="#4696BD"/>
<stop offset="0.632" stop-color="#886AA5"/>
<stop offset="0.8813" stop-color="#A14295"/>
<stop offset="1" stop-color="#AA2990"/>
</linearGradient>
<linearGradient id="paint8_linear_1745_464" x1="-0.00308054" y1="57.6021" x2="22.9965" y2="57.6021" gradientUnits="userSpaceOnUse">
<stop offset="0.0121" stop-color="#EB3392"/>
<stop offset="0.0688" stop-color="#E14297"/>
<stop offset="0.527" stop-color="#997CB8"/>
<stop offset="0.8473" stop-color="#5A91CC"/>
<stop offset="1" stop-color="#2997D4"/>
</linearGradient>
</defs>
</svg>
